<svg xmlns="http://www.w3.org/2000/svg" width="215" height="113.496" viewBox="0 0 215 113.496"><g transform="translate(-386.372 -20.724)"><g transform="translate(386.372 83.357)"><path d="M407.4,231.184a3.214,3.214,0,0,1,6.389.24,19.99,19.99,0,0,1-.75,3.989l-3.029,12.3c-.48,1.95-1.59,3.089-3.6,3.089h-1.05c-2.009,0-2.969-1.08-3.359-3.179l-1.89-10.018h-.06l-1.89,10.018c-.39,2.1-1.35,3.179-3.359,3.179h-1.05c-2.009,0-3.119-1.14-3.6-3.089l-3.029-12.3a20.019,20.019,0,0,1-.75-3.989,3.214,3.214,0,0,1,6.389-.24l1.89,11.758h.06l1.889-11.188c.39-2.37,1.11-3.329,3.48-3.329s3.089.96,3.479,3.329l1.889,11.188h.06Z" transform="translate(-386.372 -228.305)" fill="#143c3d"/><path d="M488.1,247.5l-.48,1.59a2.771,2.771,0,0,1-2.789,1.71,3.047,3.047,0,0,1-3.149-2.79,15.289,15.289,0,0,1,1.08-4.019l4.589-12.777c.66-1.8,1.56-2.79,3.3-2.79h2.16c1.739,0,2.639.99,3.3,2.79l4.589,12.777a15.289,15.289,0,0,1,1.079,4.019,3.047,3.047,0,0,1-3.149,2.79,2.772,2.772,0,0,1-2.79-1.71l-.48-1.59Zm3.659-12.208h-.06l-2.339,7.888H494.1Z" transform="translate(-452.884 -228.305)" fill="#143c3d"/><path d="M559.015,233.825c0-2.88,1.26-4.109,3.929-4.109h5.849c7.169,0,10.348,4.8,10.348,10.8s-3.179,10.8-10.348,10.8h-5.849c-2.669,0-3.929-1.23-3.929-4.109Zm8.248,12.087c3.989,0,4.979-1.98,4.979-5.4s-.99-5.4-4.979-5.4h-1.53v10.8Z" transform="translate(-506.854 -229.206)" fill="#143c3d"/><path d="M640.522,232.145c0-2.31,1.32-3.72,3.449-3.72s3.449,1.41,3.449,3.72v14.937c0,2.309-1.32,3.719-3.449,3.719s-3.449-1.41-3.449-3.719Z" transform="translate(-563.735 -228.305)" fill="#143c3d"/><path d="M711.346,235.295a2.536,2.536,0,0,1-2.819-2.789c0-1.65.87-2.79,3.059-2.79h14.757c2.19,0,3.06,1.14,3.06,2.79a2.536,2.536,0,0,1-2.819,2.789h-4.169v12.687c0,2.309-1.32,3.719-3.449,3.719s-3.449-1.41-3.449-3.719V235.295Z" transform="translate(-611.194 -229.206)" fill="#143c3d"/><path d="M794.737,228.029c5.729,0,11.157,3.749,11.157,11.308,0,7.828-5.369,11.308-11.157,11.308s-11.158-3.479-11.158-11.308C783.579,231.778,789.008,228.029,794.737,228.029Zm0,5.4c-2.879,0-4.259,2.4-4.259,5.909s1.38,5.909,4.259,5.909,4.259-2.4,4.259-5.909S797.616,233.428,794.737,233.428Z" transform="translate(-663.571 -228.029)" fill="#143c3d"/><path d="M885.89,232.145c0-2.31,1.32-3.72,3.449-3.72s3.449,1.41,3.449,3.72v9.9c0,6.539-4.439,8.878-10.378,8.878s-10.378-2.339-10.378-8.878v-9.9c0-2.31,1.32-3.72,3.449-3.72s3.449,1.41,3.449,3.72v9.838c0,2.249,1.05,3.719,3.479,3.719s3.479-1.47,3.479-3.719Z" transform="translate(-725.3 -228.305)" fill="#143c3d"/><path d="M1046.563,242.4l-4.589-1.32c-3.449-.99-5.339-3.029-5.339-6.059,0-3.6,2.4-6.988,8.4-6.988,3.989,0,9.148.96,9.148,4.589a2.738,2.738,0,0,1-3,2.729c-2.309,0-2.339-2.639-5.759-2.639-1.17,0-2.25.45-2.25,1.44,0,.96.84,1.38,2.31,1.77l3.569.96c3.63.99,6.119,2.67,6.119,6.419,0,5.129-4.409,7.348-8.968,7.348-7.258,0-9.478-3.239-9.478-5.189a2.749,2.749,0,0,1,2.909-2.82c2.459,0,2.759,3.149,6.148,3.149,1.41,0,2.67-.48,2.67-1.8C1048.453,243.116,1047.822,242.756,1046.563,242.4Z" transform="translate(-840.171 -228.029)" fill="#143c3d"/></g><g transform="translate(447.285 28.1)"><g transform="translate(0)"><path d="M645.626,50.047c1.128-1.763-6.527-6.683-8.5-4.246a61.423,61.423,0,0,0-3.444,5.187l-17.931,25.8c-4.857-6.957-9.337-13.38-13.823-19.8-3.377-4.832-7.872-6.06-13.943-3.694a20,20,0,0,0,1.216,2.326c6.115,8.757,12.21,17.529,18.406,26.229,4.222,5.929,11.517,6.03,15.984.273,1.562-2.013,2.925-4.182,4.579-6.568,1.638,2.2,3.1,4.132,4.534,6.091C637.349,88,644.363,88,648.962,81.52c6.111-8.6,12.146-17.261,18.18-25.919a18.311,18.311,0,0,0,1.277-2.674c-9.339-1.752-10.468-1.259-15.32,6-3.9,5.833-7.884,11.611-12.092,17.8-1.952-2.765-3.448-5.157-5.227-7.318-1.433-1.741-1.165-3.05.082-4.73,3.372-4.547,2.77-3.736,6.027-8.368A62.621,62.621,0,0,0,645.626,50.047Z" transform="translate(-587.982 -45.137)" fill="#da1708"/><path d="M676.594,80.6c1.915-2.7,3.424-4.74,4.834-6.845,1.564-2.334.118-4.029-1.857-4.318-3.171-.465-6.459-.125-10.759-.125Z" transform="translate(-644.391 -61.923)" fill="#da1708"/></g></g><path d="M741.424,29.511l-9.841-1.352.289-.465,11.265-.421s3-4.266,3.888-5.216c.369-.336,1.85-1.715,2.748-1.23l.01.006.01.006c.826.582-.028,2.348-.233,2.785-.638,1.106-3.868,5.229-3.868,5.229l3.749,9.7-.366.417-5.025-7.838s-1.722,1.977-2.645,2.968-3.186,3.2-3.186,3.2l.841,3.134-.227.027-1.79-2.472-2.761-.641-.057-.2,3.083-.408s1.411-2.738,2.077-3.887S741.424,29.511,741.424,29.511Z" transform="translate(-240.912)" fill="#153e42"/><g transform="translate(390.257 108.554)"><path d="M411.721,338.9h-7.237a7.231,7.231,0,0,1-3.1-.546,3.294,3.294,0,0,1-1.644-1.8,9.381,9.381,0,0,1-.512-3.458,9.681,9.681,0,0,1,.491-3.424,3.271,3.271,0,0,1,1.6-1.82,6.9,6.9,0,0,1,3.053-.557q.94,0,2.584.091t2.391.182v9.4h26.795v-5.6q0-2.184-2.092-2.184-.94,0-4.42.364l-.064-1.524a26.2,26.2,0,0,1,2.594-.512,16.635,16.635,0,0,1,2.381-.216,3.782,3.782,0,0,1,2.647.876,3.873,3.873,0,0,1,.961,2.969V338.9H411.721Zm-10.656-3.7a2.155,2.155,0,0,0,1.078,1.206,4.745,4.745,0,0,0,2.049.364h2.626v-7.577q-1.709-.137-2.712-.137a4.437,4.437,0,0,0-2,.375,2.173,2.173,0,0,0-1.057,1.206,6.389,6.389,0,0,0-.321,2.241A6.526,6.526,0,0,0,401.066,335.194Z" transform="translate(-399.231 -322.498)" fill="#da1708"/><rect width="1.815" height="2.207" transform="translate(2.785 0.5)" fill="#da1708"/><rect width="1.794" height="2.207" transform="translate(5.646 0.5)" fill="#da1708"/><path d="M627.442,371.072h1.815v2.184h-1.815Zm2.861,0H632.1v2.184H630.3Z" transform="translate(-558.492 -353.051)" fill="#da1708"/><path d="M541.328,327.627h-4.056v-16.2H539.3v14.266h26.56v-9.443h2.028v9.443h6.855v-8.3h2.028v8.3h1.751a1.452,1.452,0,0,0,1.377-.842,4.565,4.565,0,0,0,.438-2.116v-5.347h2.028v5.324a8.891,8.891,0,0,1-.278,2.321,3.437,3.437,0,0,0,.726.455,1.959,1.959,0,0,0,.854.2h2.05V321.3q0-1.593-.341-4.983l1.708-.068q.256,1.343.459,2.81a17.762,17.762,0,0,1,.2,2.241v4.391h4.848V311.427h2.029v14.266h5.466V311.427h2.029v16.2H583.625a3.512,3.512,0,0,1-2.37-.91,2.61,2.61,0,0,1-2.071.91H541.328Z" transform="translate(-495.566 -311.427)" fill="#da1708"/><path d="M788.477,343.809a5.189,5.189,0,0,1-2.146-1.752,4.518,4.518,0,0,1-.811-2.674,36.932,36.932,0,0,1,.555-4.869l1.9.319a39.212,39.212,0,0,0-.427,4.141,3.362,3.362,0,0,0,1.826,3.06,3.948,3.948,0,0,0,1.868.444h5.7a2.593,2.593,0,0,0,2.156-.91,3.951,3.951,0,0,0,.726-2.526,2.234,2.234,0,0,0-.683-1.752,5.642,5.642,0,0,0-2.391-1.024,11.547,11.547,0,0,1-2.7-.967,3.41,3.41,0,0,1-1.42-1.377,4.636,4.636,0,0,1-.448-2.184,4.129,4.129,0,0,1,1.228-3.254,5.254,5.254,0,0,1,3.6-1.092,16.733,16.733,0,0,1,1.879.114q1,.114,2.69.387l-.17,1.8a41.3,41.3,0,0,0-4.228-.387q-2.925,0-2.925,2.275a1.98,1.98,0,0,0,1.366,2.093,19.229,19.229,0,0,0,2.22.705,8.857,8.857,0,0,1,2.381.955,3.266,3.266,0,0,1,1.26,1.4,5.121,5.121,0,0,1,.4,2.15,6.063,6.063,0,0,1-1.249,4.073,4.428,4.428,0,0,1-3.555,1.456h-5.722A6.892,6.892,0,0,1,788.477,343.809Zm2.936,2.241h1.815v2.185h-1.815Zm2.861,0h1.794v2.185h-1.794Z" transform="translate(-668.81 -322.568)" fill="#da1708"/><path d="M853.463,326.521a5.358,5.358,0,0,1,2,2.514,11.277,11.277,0,0,1,.747,4.437v4.141h-8.925v-1.934H854.2v-2.093q0-3.23-1.174-4.562a3.571,3.571,0,0,0-2.754-1.331h-1.858l-.15-1.615a6.49,6.49,0,0,1,1.046-.228,8.851,8.851,0,0,1,1.367-.114A5.126,5.126,0,0,1,853.463,326.521Z" transform="translate(-711.912 -321.413)" fill="#da1708"/><path d="M886.643,311.427h2.028v16.2h-2.028Z" transform="translate(-739.381 -311.427)" fill="#da1708"/><path d="M914.744,327.627h-2.669a9.165,9.165,0,0,1-1.036,4.164,3.131,3.131,0,0,1-2.914,1.479,28.281,28.281,0,0,1-3.373-.364v-1.934a20.307,20.307,0,0,0,3.224.364,2.233,2.233,0,0,0,1.174-.273,1.786,1.786,0,0,0,.683-1.081,8.96,8.96,0,0,0,.235-2.355h-2.925q-2.477,0-3.256-1.615a9.176,9.176,0,0,1-.779-4,12.316,12.316,0,0,1,.459-3.6,3.467,3.467,0,0,1,1.452-1.968,5.245,5.245,0,0,1,2.765-.626,19.759,19.759,0,0,1,2.253.148,20.976,20.976,0,0,1,2.082.33v9.4H949.4V311.427h2.028v16.2h-36.68Zm-9.1-2.992a2.151,2.151,0,0,0,2.157,1.058h2.284v-7.782a12.512,12.512,0,0,0-1.857-.159,2.724,2.724,0,0,0-2.4.967,5.921,5.921,0,0,0-.694,3.22A6.186,6.186,0,0,0,905.649,324.635Z" transform="translate(-750.871 -311.427)" fill="#da1708"/><path d="M1075.887,311.427h2.028v16.2h-2.028Z" transform="translate(-871.448 -311.427)" fill="#da1708"/></g><path d="M959.654,233.825c0-2.88,1.26-4.109,4.229-4.109h7.648c5.279,0,7.648,2.819,7.648,6.119a4.986,4.986,0,0,1-4.379,5.159v.06c2.19.15,3.689.9,3.989,3.18l.24,1.8a22.485,22.485,0,0,1,.3,3.029,2.906,2.906,0,0,1-3.089,2.639c-2.01,0-3.569-.84-3.809-2.97l-.33-2.849c-.21-1.739-1.41-2.249-3.029-2.249h-2.7V248.1c0,2.309-1.2,3.6-3.359,3.6s-3.359-1.29-3.359-3.6Zm10.168,5.309c2.01,0,2.819-.63,2.819-2.1s-.81-2.1-2.819-2.1h-3.449v4.2Z" transform="translate(-400.076 -145.849)" fill="#143c3d"/></g></svg>